PathFileType  4	(X/Y/Z) C:\Users\antoi\Documents\MyRepositories\mobilecap\ResultsAnalysis
DataRate	CameraRate	NumFrames	NumMarkers	Units	OrigDataRate	OrigDataStartFrame	OrigNumFrames
100.0	100.0	4	51	mm	100.0	1121	1280
Frame#	Time	r_knee			r_shank_antsup			r_ankle			r_calc			r_5meta			r_toe			L_knee			L_shank_antsup			L_ankle			L_calc			L_5meta			L_toe			r_sh2			r_sh3			r_sh4			L_sh2			L_sh3			r_thigh1			r_thigh2			r_thigh3			r_thigh4			r_thigh5			L_thigh1			L_thigh2			L_thigh3			L_thigh4			r.ASIS			r.PSIS			L.ASIS			L.PSIS			C7			R_Shoulder			L_Shoulder			R_Sternum			L_Sternum			R_humerus			R_elbow_med			R_elbow_lat			R_forearm			R_wrist_radius			R_wrist_ulna			L_humerus			L_elbow_med			L_elbow_lat			L_forearm			L_wrist_radius			L_wrist_ulna			R_HJC			L_HJC			R_HJC_reg			L_HJC_reg			
		X1	Y1	Z1	X2	Y2	Z2	X3	Y3	Z3	X4	Y4	Z4	X5	Y5	Z5	X6	Y6	Z6	X7	Y7	Z7	X8	Y8	Z8	X9	Y9	Z9	X10	Y10	Z10	X11	Y11	Z11	X12	Y12	Z12	X13	Y13	Z13	X14	Y14	Z14	X15	Y15	Z15	X16	Y16	Z16	X17	Y17	Z17	X18	Y18	Z18	X19	Y19	Z19	X20	Y20	Z20	X21	Y21	Z21	X22	Y22	Z22	X23	Y23	Z23	X24	Y24	Z24	X25	Y25	Z25	X26	Y26	Z26	X27	Y27	Z27	X28	Y28	Z28	X29	Y29	Z29	X30	Y30	Z30	X31	Y31	Z31	X32	Y32	Z32	X33	Y33	Z33	X34	Y34	Z34	X35	Y35	Z35	X36	Y36	Z36	X37	Y37	Z37	X38	Y38	Z38	X39	Y39	Z39	X40	Y40	Z40	X41	Y41	Z41	X42	Y42	Z42	X43	Y43	Z43	X44	Y44	Z44	X45	Y45	Z45	X46	Y46	Z46	X47	Y47	Z47	X48	Y48	Z48	X49	Y49	Z49	X50	Y50	Z50	X51	Y51	Z51	

1121	11.20000000	-104.17469	407.18063	-340.33094	-88.14039	295.27684	-361.07989	-277.35396	87.92762	-389.56048	-333.61119	53.02571	-437.72789	-184.18677	40.50760	-335.30563	-142.42649	56.14301	-374.99594	-163.13652	448.13179	-794.29925	-118.87734	332.34526	-782.17117	-291.06628	95.96562	-805.15754	-336.73437	53.96203	-762.12308	-182.71103	36.24057	-850.57300	-137.24677	55.82987	-803.99572	-149.46114	200.83688	-380.68666	-140.06027	316.72565	-310.16006	-212.47429	232.69523	-334.66167	-177.18065	380.34212	-827.77708	-230.28246	272.51550	-846.86801	-292.88440	639.55823	-319.49462	-204.80704	583.97877	-326.69376	-209.06585	525.08041	-291.06831	-350.70005	547.52018	-289.83433	-251.15894	488.82499	-292.49280	-349.75253	653.12844	-708.39720	-236.34462	598.97195	-751.24058	-419.17484	568.04460	-734.61048	-296.62648	510.82136	-778.02535	-288.28679	647.38853	-373.52882	-420.98443	770.28599	-428.40313	-306.02667	654.05996	-623.42604	-432.74147	779.48529	-539.30987	-106.76394	1073.99122	-455.24988	-49.22121	1006.02801	-313.10591	-32.14356	1027.28924	-602.56217	-18.95717	966.79812	-437.98977	-17.41988	966.50812	-477.97709	-30.16525	892.80795	-252.25545	-113.36768	689.44353	-235.40312	-45.49036	716.50819	-191.68982	12.12960	774.54487	-281.57140	36.38621	826.77685	-363.78279	68.50118	806.75934	-360.16905	3.55495	903.32455	-665.29549	-44.02868	701.63134	-681.22178	18.57858	726.44586	-724.58585	60.75841	772.83931	-635.83870	61.54074	827.75801	-525.35537	89.79787	812.63270	-521.86920	-399.43028	627.62121	-392.95518	-412.72489	630.04489	-581.85456	-384.86677	616.36268	-401.22201	-402.24053	629.96003	-565.14010	
1122	11.21000000	-103.65715	406.41994	-339.84534	-87.67814	294.68128	-360.92205	-277.37179	88.00078	-389.43923	-333.63232	53.03528	-437.81159	-184.18536	40.49309	-335.33752	-142.38113	56.10900	-374.99136	-162.95993	447.87144	-795.05167	-118.51612	332.07716	-782.79529	-291.02772	95.97301	-805.15157	-336.72916	53.97939	-762.06984	-182.71641	36.23405	-850.58698	-137.23016	55.78324	-804.01517	-149.23099	200.35832	-380.68906	-139.40439	316.04738	-310.14864	-212.12664	232.28185	-334.43238	-176.64509	380.05731	-828.36210	-229.96671	272.36094	-847.25391	-295.10066	636.41092	-318.58424	-206.64669	581.58067	-326.44600	-210.02571	522.70896	-290.58668	-351.70387	543.43757	-289.10101	-251.66977	485.91359	-291.81200	-352.11822	649.90642	-707.91527	-238.15316	597.39590	-750.91047	-420.67637	564.20294	-734.55930	-297.41787	508.61086	-778.22057	-290.79578	639.81720	-373.71892	-422.26030	764.39295	-428.15130	-307.61767	648.26387	-623.08915	-434.14094	773.58608	-538.69095	-104.55381	1064.68990	-455.55024	-46.90927	996.32507	-313.32575	-30.17298	1016.96965	-602.84934	-17.75499	956.67366	-438.41901	-16.19265	956.32668	-478.37762	-27.84791	883.27947	-252.65454	-110.72494	679.87832	-234.88452	-42.59756	707.16628	-191.63413	13.80016	765.40934	-282.25539	36.85327	817.71968	-364.73555	69.29985	797.61793	-361.88705	5.74446	893.22642	-665.37071	-41.74108	691.83944	-681.94747	21.05810	716.55620	-724.35916	62.73543	763.42571	-635.76527	62.06149	818.61373	-525.14387	90.58200	803.82947	-521.54841	-401.90559	621.03413	-393.26151	-414.71689	624.57673	-582.17426	-387.00496	610.98649	-401.06652	-404.57780	624.58735	-564.61078	
1123	11.22000000	-103.20440	405.75186	-339.31757	-87.24239	294.13858	-360.89092	-277.51448	88.29044	-389.04541	-333.65050	53.04347	-437.87963	-184.20849	40.51875	-335.33542	-142.34914	56.09882	-375.00927	-162.79964	447.48832	-795.53062	-118.19643	331.74386	-783.29418	-290.99504	95.96479	-805.14375	-336.71774	53.98345	-762.06589	-182.72228	36.20491	-850.61437	-137.21280	55.72496	-804.04598	-149.11765	200.01027	-380.57111	-138.86627	315.57196	-309.99721	-211.80637	231.98520	-334.24584	-176.20948	379.83927	-828.95616	-229.74835	272.06246	-847.64336	-297.33585	633.07888	-317.88747	-209.01094	579.22362	-325.47132	-211.09577	520.23005	-289.98403	-352.79284	539.30318	-288.43688	-252.27413	482.91532	-291.38114	-354.23665	646.75158	-707.51148	-239.78140	595.83782	-750.66656	-422.06419	560.58148	-734.63508	-298.17810	506.49350	-778.41296	-293.49836	632.27173	-374.01197	-423.86251	758.70903	-428.00237	-308.96943	642.81288	-622.68715	-435.52244	767.78946	-538.11269	-102.43211	1055.55041	-455.83076	-44.63901	986.69189	-313.74967	-28.42848	1006.69240	-603.33321	-16.53320	946.68627	-438.93659	-15.04523	946.28218	-478.65599	-25.53067	873.85003	-253.12122	-108.39007	670.69077	-234.01650	-39.82032	697.89255	-191.73588	15.41288	756.34094	-283.00857	37.32358	808.74194	-365.73222	69.97976	789.00477	-362.64633	7.84475	883.30743	-665.52690	-39.47481	681.95406	-682.04492	23.38992	706.72186	-724.02519	64.81108	753.75211	-635.37188	62.63878	809.53885	-525.16004	91.33201	794.97201	-521.45337	-404.56633	614.49511	-393.78406	-416.55046	619.34830	-582.71773	-389.38985	605.92359	-401.22587	-406.66087	619.37514	-564.35512	
1124	11.23000000	-102.73990	405.03270	-338.96988	-86.77528	293.62836	-360.81209	-277.32074	88.11706	-389.34705	-333.64842	53.04742	-437.86398	-184.21204	40.54270	-335.33256	-142.35785	56.08815	-375.05436	-162.64940	447.02987	-795.92528	-117.82272	331.43198	-783.73002	-290.97603	95.95305	-805.14769	-336.70109	53.98677	-762.06888	-182.72440	36.17956	-850.62751	-137.21030	55.69018	-804.08094	-149.00487	199.76087	-380.43790	-138.52277	315.28490	-309.68792	-211.50589	231.79990	-334.16604	-175.86044	379.57643	-829.53681	-229.51102	271.60902	-847.97693	-299.56735	629.50815	-317.36622	-211.11031	577.01476	-324.00800	-212.22290	517.60498	-289.42601	-354.00669	535.12557	-287.85053	-252.92412	479.74752	-291.28190	-356.24171	643.52855	-706.93505	-241.32239	594.01587	-750.05140	-423.34656	557.00038	-734.57413	-298.93999	504.43244	-778.68982	-296.80826	625.66044	-373.29388	-425.63227	753.22548	-427.97984	-310.07723	637.73687	-622.20379	-436.87992	762.08406	-537.66068	-100.32360	1046.61468	-455.90568	-42.58046	977.10673	-314.42684	-26.45653	996.68557	-603.57409	-14.97181	937.05031	-439.02181	-13.79831	936.57550	-478.74457	-23.16386	864.52635	-253.59413	-106.24206	661.63488	-233.29771	-37.16895	688.73562	-191.99414	16.93222	747.45593	-283.66908	38.06476	799.82349	-366.35008	70.59328	780.39981	-363.52025	9.90297	873.47554	-665.52219	-37.37489	672.06534	-681.82966	25.62388	696.97751	-723.89797	66.66807	744.01467	-634.80253	63.35530	800.46563	-525.29695	92.07568	786.04787	-521.42378	-407.54222	608.49142	-394.06563	-418.07451	614.27373	-583.06042	-392.13389	601.17552	-400.70581	-408.88242	614.36631	-564.02868	
